{"title":"Tigers 2018 Hindi 720p WEB-DL x264 AAC { TaRa }.mkv","magnet":"magnet:?xt=urn:btih:a7b90f352247558acbbbc03a123813ce91a778e5&dn=Tigers+2018+Hindi+720p+WEB-DL+x264+AAC+%7B+TaRa+%7D.mkv&tr=udp%3A%2F%2Ftracker.leechers-paradise.org%3A6969&tr=udp%3A%2F%2Fzer0day.ch%3A1337&tr=udp%3A%2F%2Fopen.demonii.com%3A1337&tr=udp%3A%2F%2Ftracker.coppersurfer.tk%3A6969&tr=udp%3A%2F%2Fexodus.desync.com%3A6969","uploader":"SkTaRa","categoryP":"video","categoryS":"hd___movies","size":"877394183","seeders":"92","leechers":"145","description":"===================================================================\r\nGeneral\r\nComplete name               : Tigers 2018 Hindi 720p WEB-DL x264 AAC { TaRa }.mkv\r\nFormat                      : Matroska\r\nFormat version              : Version 4\r\nFile size                   : 837 MiB\r\nDuration                    : 1 h 29 min\r\nOverall bit rate            : 1 310 kb/s\r\n===================================================================\r\nVideo\r\nID                          : 1\r\nFormat                      : AVC\r\nFormat/Info                 : Advanced Video Codec\r\nFormat profile              : High@L3.1\r\nFormat settings             : CABAC / 5 Ref Frames\r\nFormat settings, CABAC      : Yes\r\nFormat settings, ReFrames   : 5 frames\r\nCodec ID                    : V_MPEG4/ISO/AVC\r\nDuration                    : 1 h 29 min\r\nBit rate                    : 1 216 kb/s\r\nWidth                       : 1 280 pixels\r\nHeight                      : 720 pixels\r\nDisplay aspect ratio        : 16:9\r\nFrame rate mode             : Constant\r\nFrame rate                  : 25.000 FPS\r\nColor space                 : YUV\r\nChroma subsampling          : 4:2:0\r\nBit depth                   : 8 bits\r\nScan type                   : Progressive\r\nBits/(Pixel*Frame)          : 0.053\r\nStream size                 : 775 MiB (93%)\r\nTitle                       : .....::::: TaRa :::::.....\r\nLanguage                    : Hindi\r\nDefault                     : Yes\r\nForced                      : No\r\n===================================================================\r\nAudio\r\nID                          : 2\r\nFormat                      : AAC LC\r\nFormat/Info                 : Advanced Audio Codec Low Complexity\r\nCodec ID                    : A_AAC-2\r\nDuration                    : 1 h 29 min\r\nBit rate                    : 96.0 kb/s\r\nChannel(s)                  : 2 channels\r\nChannel layout              : L R\r\nSampling rate               : 48.0 kHz\r\nFrame rate                  : 46.875 FPS (1024 SPF)\r\nCompression mode            : Lossy\r\nStream size                 : 60.4 MiB (7%)\r\nTitle                       : .....::::: TaRa :::::.....\r\nLanguage                    : Hindi\r\nDefault                     : Yes\r\nForced                      : No\r\n=================================================================== <a href=\"\nhttps://extraimage.net/image/7WTR\" rel=\"nofollow\" target=\"_NEW\">\nhttps://extraimage.net/image/7WTR</a> <a href=\"\nhttps://extraimage.net/image/7WTQ\" rel=\"nofollow\" target=\"_NEW\">\nhttps://extraimage.net/image/7WTQ</a> <a href=\"\nhttps://extraimage.net/image/7WTm\" rel=\"nofollow\" target=\"_NEW\">\nhttps://extraimage.net/image/7WTm</a> <a href=\"\nhttps://extraimage.net/image/7WTi\" rel=\"nofollow\" target=\"_NEW\">\nhttps://extraimage.net/image/7WTi</a> <a href=\"\nhttps://extraimage.net/image/7WTl\" rel=\"nofollow\" target=\"_NEW\">\nhttps://extraimage.net/image/7WTl</a> <a href=\"\nhttps://extraimage.net/image/7WTI\" rel=\"nofollow\" target=\"_NEW\">\nhttps://extraimage.net/image/7WTI</a> <a href=\"\nhttps://extraimage.net/image/7WTd\" rel=\"nofollow\" target=\"_NEW\">\nhttps://extraimage.net/image/7WTd</a> <a href=\"\nhttps://extraimage.net/image/7WTh\" rel=\"nofollow\" target=\"_NEW\">\nhttps://extraimage.net/image/7WTh</a> <a href=\"\nhttps://extraimage.net/image/7WTb\" rel=\"nofollow\" target=\"_NEW\">\nhttps://extraimage.net/image/7WTb</a> <a href=\"\nhttps://extraimage.net/image/7WT3\" rel=\"nofollow\" target=\"_NEW\">\nhttps://extraimage.net/image/7WT3</a> <a href=\"\nhttps://extraimage.net/image/7WT9\" rel=\"nofollow\" target=\"_NEW\">\nhttps://extraimage.net/image/7WT9</a>","last_updated":"2018-11-21T12:15:06.996Z","parsed":{"xt":"urn:btih:a7b90f352247558acbbbc03a123813ce91a778e5","dn":"Tigers 2018 Hindi 720p WEB-DL x264 AAC { TaRa }.mkv","tr":["udp://exodus.desync.com:6969","udp://open.demonii.com:1337","udp://tracker.coppersurfer.tk:6969","udp://tracker.leechers-paradise.org:6969","udp://zer0day.ch:1337"],"infoHash":"a7b90f352247558acbbbc03a123813ce91a778e5","infoHashBuffer":{"type":"Buffer","data":[167,185,15,53,34,71,85,138,203,187,192,58,18,56,19,206,145,167,120,229]},"name":"Tigers 2018 Hindi 720p WEB-DL x264 AAC { TaRa }.mkv","announce":["udp://exodus.desync.com:6969","udp://open.demonii.com:1337","udp://tracker.coppersurfer.tk:6969","udp://tracker.leechers-paradise.org:6969","udp://zer0day.ch:1337"],"urlList":[]}}